<svg width="30" height="28" viewBox="0 0 30 28" fill="none" xmlns="http://www.w3.org/2000/svg">
<path d="M26.6745 27.2374H3.32547C1.49193 27.2374 0 25.7457 0 23.9119V4.09451C0 2.26097 1.49193 0.769043 3.32547 0.769043H26.6745C28.5081 0.769043 30 2.26097 30 4.09451V23.9119C30 25.7457 28.5081 27.2374 26.6745 27.2374ZM3.32547 1.75961C2.03807 1.75961 0.990566 2.80711 0.990566 4.09451V23.9119C0.990566 25.1993 2.03807 26.2468 3.32547 26.2468H26.6745C27.9619 26.2468 29.0094 25.1993 29.0094 23.9119V4.09451C29.0094 2.80711 27.9619 1.75961 26.6745 1.75961H3.32547Z" fill="#4985FF"/>
</svg>
